# xmcd CD database file
#
# Track frame offsets:
#	150
#	26880
#	46503
#	62345
#	71348
#	88673
#	109765
#	133183
#	160163
#	172248
#	194033
#	198510
#	219755
#	234885
#	256275
#
# Disc length: 3513 seconds
#
# Revision: 1
# Processed by: cddbd v1.5.1PL0 Copyright (c) Steve Scherf et al.
# Submitted via: CDex 1.50Beta7
#
DISCID=ce0db70f
DTITLE=Eddie Condon - The Town Hall Concerts Volume 7 [CD1/2)
DYEAR=1944
DGENRE=Jazz
TTITLE0=My Blue Heaven
TTITLE1=Through The Veil Of Indifference
TTITLE2=After You've Gone
TTITLE3=Pee Wee's Town Hall Stomp
TTITLE4=Riverside Blues
TTITLE5=Wherever There's Love
TTITLE6=Impromptu Ensemble
TTITLE7=Easter Parade
TTITLE8=Cherry
TTITLE9=Someday, Sweetheart
TTITLE10=Impromptu Ensemble
TTITLE11=Way Down Yonder In New Orleans
TTITLE12=Three Little Words
TTITLE13=Song Of The Wanderer
TTITLE14=Impromptu Ensemble
EXTD=YEAR: 1944
EXTT0=
EXTT1=
EXTT2=
EXTT3=
EXTT4=
EXTT5=
EXTT6=
EXTT7=
EXTT8=
EXTT9=
EXTT10=
EXTT11=
EXTT12=
EXTT13=
EXTT14=
PLAYORDER=
